<svg width="25" height="21" viewBox="0 0 25 21" fill="none" xmlns="http://www.w3.org/2000/svg">
<path d="M2.13207 0.112595L23.3009 9.44198C23.5146 9.53622 23.695 9.68423 23.8213 9.86892C23.9476 10.0536 24.0146 10.2674 24.0146 10.4857C24.0146 10.704 23.9476 10.9178 23.8213 11.1025C23.695 11.2872 23.5146 11.4352 23.3009 11.5295L2.13207 20.8589C1.91496 20.9547 1.67253 20.9911 1.43363 20.9636C1.19474 20.9361 0.969448 20.846 0.784602 20.7038C0.599756 20.5617 0.463142 20.3736 0.391032 20.162C0.318921 19.9503 0.314354 19.7241 0.377873 19.5101L3.05035 10.4862L0.377873 1.46044C0.314866 1.2466 0.319821 1.02058 0.392148 0.809253C0.464476 0.597928 0.601135 0.41018 0.785884 0.268325C0.970632 0.12647 1.1957 0.036473 1.43434 0.00903095C1.67297 -0.0184111 1.91514 0.0169299 2.13207 0.112595ZM1.97634 1.58449L4.41071 9.81134H15.404C15.5864 9.81141 15.7626 9.87243 15.8999 9.98308C16.0372 10.0937 16.1262 10.2465 16.1505 10.4131L16.1576 10.5056C16.1578 10.6736 16.092 10.8359 15.9723 10.9625C15.8526 11.0892 15.6871 11.1715 15.5065 11.1944L15.404 11.2008L4.39865 11.1999L1.97734 19.3879L22.1777 10.4853L1.97634 1.58449Z" fill="white"/>
</svg>
