<?xml version="1.0" encoding="utf-8"?>
<!-- Generator: Adobe Illustrator 27.6.1, SVG Export Plug-In . SVG Version: 6.00 Build 0)  -->
<svg version="1.1" id="Layer_2_00000033360828532645226270000000905935890745069503_"
	 xmlns="http://www.w3.org/2000/svg" xmlns:xlink="http://www.w3.org/1999/xlink" x="0px" y="0px" viewBox="0 0 88 88"
	 style="enable-background:new 0 0 88 88;" xml:space="preserve">
<g id="Layer_1-2">
	<path d="M44,0L44,0C19.7,0,0,19.7,0,44s19.7,44,44,44s44-19.7,44-44S68.3,0,44,0z M44,83.9C21.9,83.9,4.1,66.1,4.1,44
		S21.9,4.1,44,4.1l0,0c22.1,0,39.9,17.8,39.9,39.9S66.1,83.9,44,83.9z"/>
	<path d="M24.4,22.7c-1.1,0.1-1.8,1-1.7,2.1c0,0.5,0.2,0.9,0.6,1.2l18,18l-18,18c-0.8,0.7-0.8,2-0.1,2.7s2,0.8,2.7,0.1
		c0,0,0,0,0.1-0.1l18-18l18,18c0.8,0.8,2,0.8,2.7,0s0.8-2,0-2.7c0,0,0,0-0.1-0.1l-18-18l18-18c0.8-0.7,0.8-2,0.1-2.7
		c-0.4-0.5-1.1-0.7-1.7-0.6c-0.4,0.1-0.8,0.3-1.1,0.6l-18,18l-18-18C25.6,22.8,25,22.6,24.4,22.7L24.4,22.7L24.4,22.7z"/>
</g>
</svg>
