<?xml version="1.0" encoding="utf-8"?>
<!-- Generator: Adobe Illustrator 27.6.1, SVG Export Plug-In . SVG Version: 6.00 Build 0)  -->
<svg version="1.1" id="Layer_1" xmlns="http://www.w3.org/2000/svg" xmlns:xlink="http://www.w3.org/1999/xlink" x="0px" y="0px"
	 viewBox="0 0 73.4 73.9" style="enable-background:new 0 0 73.4 73.9;" xml:space="preserve">
<path d="M50.3,31.5H5.5C2.5,31.5,0,34,0,37l0,0c0,3,2.5,5.5,5.5,5.5h44.9c3,0,5.5-2.5,5.5-5.5l0,0C55.8,33.9,53.4,31.5,50.3,31.5z"
	/>
<path d="M67.8,0H5.5C2.5,0,0,2.5,0,5.5l0,0c0,3,2.5,5.5,5.5,5.5h62.4c3,0,5.5-2.5,5.5-5.5l0,0C73.3,2.5,70.9,0,67.8,0z"/>
<path d="M67.8,62.9H5.5c-3,0-5.5,2.5-5.5,5.5l0,0c0,3,2.5,5.5,5.5,5.5h62.4c3,0,5.5-2.5,5.5-5.5l0,0C73.3,65.4,70.9,62.9,67.8,62.9z
	"/>
</svg>
