<?xml version="1.0" encoding="utf-8"?>
<!-- Generator: Adobe Illustrator 27.6.1, SVG Export Plug-In . SVG Version: 6.00 Build 0)  -->
<svg version="1.1"
	 id="Layer_1" xmlns:rdf="http://www.w3.org/1999/02/22-rdf-syntax-ns#" xmlns:cc="http://creativecommons.org/ns#" xmlns:inkscape="http://www.inkscape.org/namespaces/inkscape" xmlns:sodipodi="http://sodipodi.sourceforge.net/DTD/sodipodi-0.dtd" xmlns:dc="http://purl.org/dc/elements/1.1/" xmlns:svg="http://www.w3.org/2000/svg"
	 xmlns="http://www.w3.org/2000/svg" xmlns:xlink="http://www.w3.org/1999/xlink" x="0px" y="0px" viewBox="0 0 38 36"
	 style="enable-background:new 0 0 38 36;" xml:space="preserve">
<g transform="translate(0,-952.36218)">
	<path d="M2,952.4c-1.1,0-2,0.9-2,2c0,1.1,0.9,2,2,2h34c1.1,0,2-0.9,2-2c0-1.1-0.9-2-2-2H2z M2,968.4c-1.1,0-2,0.9-2,2
		c0,1.1,0.9,2,2,2h24c1.1,0,2-0.9,2-2c0-1.1-0.9-2-2-2H2z M2,984.4c-1.1,0-2,0.9-2,2c0,1.1,0.9,2,2,2h34c1.1,0,2-0.9,2-2
		c0-1.1-0.9-2-2-2H2z"/>
</g>
</svg>
