<svg width="33" height="32" viewBox="0 0 33 32" fill="none" xmlns="http://www.w3.org/2000/svg">
<path d="M27.261 0H4.86097C2.21001 0 0.0609741 2.14903 0.0609741 4.8V27.2C0.0609741 29.851 2.21001 32 4.86097 32H27.261C29.9119 32 32.061 29.851 32.061 27.2V4.8C32.061 2.14903 29.9119 0 27.261 0Z" fill="#348CFF"/>
<path d="M22.2859 20.625L22.9984 16H18.5609V13C18.5609 11.7375 19.1797 10.5 21.1672 10.5H23.1859V6.5625C23.1859 6.5625 21.3547 6.25 19.6047 6.25C15.9484 6.25 13.5609 8.4625 13.5609 12.475V16H9.49844V20.625H13.5609V32H18.5609V20.625H22.2859Z" fill="white"/>
</svg>
