<svg width="33" height="32" viewBox="0 0 33 32" fill="none" xmlns="http://www.w3.org/2000/svg">
<path d="M27.3974 0H4.99745C2.34648 0 0.197449 2.14903 0.197449 4.8V27.2C0.197449 29.851 2.34648 32 4.99745 32H27.3974C30.0484 32 32.1974 29.851 32.1974 27.2V4.8C32.1974 2.14903 30.0484 0 27.3974 0Z" fill="#2CA7DD"/>
<path d="M12.6351 25.2498C11.9476 25.2498 12.0101 24.9998 11.8226 24.3748L9.82263 17.8123L25.1351 8.81226" fill="#C8DAEA"/>
<path d="M12.6353 25.2501C13.0728 25.2501 13.3228 25.0001 13.6353 24.7501L16.4478 22.0626L12.9478 19.9376" fill="#A9C9DD"/>
<path d="M12.9476 19.9378L21.3851 26.1253C22.2601 26.6878 23.0101 26.3753 23.2601 25.2503L26.6976 9.12527C27.0101 7.75027 26.1351 7.12527 25.1976 7.56277L5.1351 15.3128C3.8226 15.8128 3.8226 16.6253 4.8851 16.9378L10.0726 18.5628L21.9476 11.0003C22.5101 10.6878 23.0101 10.8128 22.6351 11.2503" fill="#F6FBFE"/>
</svg>
