<svg width="32" height="32" viewBox="0 0 32 32" fill="none" xmlns="http://www.w3.org/2000/svg">
<path d="M25.0102 0H6.98981C3.12945 0 0 3.12945 0 6.98981V25.0102C0 28.8706 3.12945 32 6.98981 32H25.0102C28.8706 32 32 28.8706 32 25.0102V6.98981C32 3.12945 28.8706 0 25.0102 0Z" fill="#6774FF"/>
<path d="M21.8346 10.7552C23.7201 13.5472 24.6513 16.6964 24.3032 20.3219C24.3018 20.3372 24.2938 20.3513 24.2813 20.3606C22.8534 21.4165 21.47 22.0573 20.106 22.4823C20.0953 22.4855 20.0839 22.4853 20.0735 22.4818C20.0629 22.4782 20.0538 22.4714 20.0473 22.4623C19.7322 22.0207 19.4458 21.5552 19.195 21.0663C19.1806 21.0375 19.1938 21.0029 19.2234 20.9915C19.6781 20.819 20.1105 20.6122 20.5265 20.3673C20.5592 20.3479 20.5613 20.3007 20.531 20.278C20.4428 20.212 20.3553 20.1426 20.2717 20.0732C20.256 20.0605 20.2349 20.0579 20.2172 20.0665C17.5169 21.3223 14.5588 21.3223 11.8266 20.0665C11.8088 20.0586 11.7878 20.0613 11.7725 20.0739C11.6891 20.1432 11.6014 20.212 11.514 20.278C11.4837 20.3007 11.4862 20.3479 11.5192 20.3673C11.9351 20.6075 12.3675 20.819 12.8216 20.9923C12.8511 21.0037 12.865 21.0375 12.8504 21.0663C12.605 21.5558 12.3187 22.0213 11.9977 22.4629C11.9837 22.4808 11.9608 22.489 11.9391 22.4823C10.5815 22.0573 9.19808 21.4165 7.77016 20.3606C7.75828 20.3513 7.74972 20.3366 7.74846 20.3213C7.45754 17.1853 8.05045 14.01 10.2148 10.7546C10.2201 10.746 10.228 10.7393 10.2371 10.7353C11.3021 10.243 12.4431 9.88091 13.6356 9.67411C13.6573 9.67076 13.679 9.68082 13.6902 9.70019C13.8376 9.9629 14.006 10.2998 14.12 10.5751C15.3769 10.3818 16.6535 10.3818 17.9368 10.5751C18.0507 10.3057 18.2133 9.9629 18.36 9.70019C18.3652 9.69057 18.3733 9.68289 18.3831 9.6782C18.393 9.67352 18.404 9.67209 18.4147 9.67411C19.6078 9.88154 20.7487 10.2437 21.8129 10.7353C21.8222 10.7393 21.83 10.746 21.8346 10.7552ZM14.759 16.7179C14.7721 15.7908 14.1009 15.0236 13.2585 15.0236C12.4228 15.0236 11.7581 15.784 11.7581 16.7179C11.7581 17.6514 12.436 18.4118 13.2585 18.4118C14.0943 18.4118 14.759 17.6514 14.759 16.7179ZM20.3065 16.7179C20.3196 15.7908 19.6485 15.0236 18.8062 15.0236C17.9704 15.0236 17.3057 15.784 17.3057 16.7179C17.3057 17.6514 17.9835 18.4118 18.8062 18.4118C19.6485 18.4118 20.3065 17.6514 20.3065 16.7179Z" fill="white"/>
</svg>
