<svg width="113" height="87" viewBox="0 0 113 87" fill="none" xmlns="http://www.w3.org/2000/svg">
<mask id="mask0_1_1453" style="mask-type:luminance" maskUnits="userSpaceOnUse" x="0" y="0" width="113" height="87">
<path fill-rule="evenodd" clip-rule="evenodd" d="M16.9229 0.983398L112.555 26.608L96.5485 86.3452L0.916317 60.7206L16.9229 0.983398Z" fill="white"/>
</mask>
<g mask="url(#mask0_1_1453)">
<path fill-rule="evenodd" clip-rule="evenodd" d="M11.1109 62.7922C14.2028 62.8663 17.2946 62.9404 20.3221 62.903C44.4946 62.7794 68.9695 55.1931 90.5963 44.8636C95.8973 42.3236 101.286 39.8072 106.008 36.2633C108.11 34.7521 110.841 32.655 111.548 30.0157C113.44 22.6019 99.5374 25.5716 96.392 26.0489C87.7777 27.2297 79.1398 28.4983 70.5255 29.6791C70.0385 29.7371 69.4399 29.8596 68.9937 30.1172C67.9018 30.6733 68.0352 31.9349 69.2905 32.177C69.8183 32.3184 70.4405 32.1079 70.9511 31.9618C75.8341 30.63 80.4061 29.4034 85.3236 28.6466C90.6402 27.8081 95.8688 26.946 101.185 26.1075C102.846 25.8924 104.618 25.6129 106.02 26.3655C111.601 29.4642 101.628 33.9582 99.579 34.9179C98.264 35.6028 96.908 36.0882 95.5286 36.6615C83.2895 41.8685 70.8163 46.5414 58.0682 50.4806C43.2542 55.092 28.3585 59.3043 12.8111 58.9102C11.2212 58.8614 7.3893 59.4376 7.13969 57.202C6.70319 54.2562 12.6782 52.3683 14.5683 51.6489C18.4599 50.1457 22.3516 48.6425 26.3312 47.1629C34.0675 44.3325 41.9325 41.7252 49.9608 39.916C50.4479 39.8579 50.3081 38.9718 49.8211 39.0299C41.301 39.8587 33.2429 42.1313 25.3479 45.2021C17.6761 48.1441 10.086 51.4851 3.35669 56.1883C-3.13226 61.0503 7.99549 62.8061 11.1109 62.7922Z" fill="#003864"/>
</g>
<path fill-rule="evenodd" clip-rule="evenodd" d="M65.4491 16.249C78.8217 19.8322 86.8315 33.5767 83.2247 47.0373C79.6415 60.41 65.8971 68.4197 52.4364 64.813C38.9757 61.2062 31.0539 47.4853 34.6607 34.0246C38.2439 20.6519 52.0764 12.6658 65.4491 16.249Z" fill="#008DF8"/>
<path fill-rule="evenodd" clip-rule="evenodd" d="M74.8654 35.651C74.0673 35.8143 70.9358 39.4071 70.6184 39.8878C68.6905 42.8601 65.9236 45.7962 61.9755 45.3984C61.2481 45.2978 60.9967 44.4761 61.5781 44.0661C63.2105 42.9005 64.9781 41.5825 62.2272 40.9397C61.6114 40.7747 61.4009 40.1525 61.4543 39.601C61.6728 38.4337 62.3548 37.2964 63.64 37.075C64.127 37.0169 64.5433 37.2227 65.0304 37.1646C67.8411 36.8805 67.2429 31.7226 64.2971 32.1591C63.411 32.2988 62.8722 31.4945 63.1723 30.7262C63.749 29.2777 64.929 28.7452 66.4545 28.6825C68.3555 28.6261 69.8085 30.2413 71.4393 30.4897C71.4456 30.1142 71.5164 29.8502 71.8102 29.4575C72.8268 28.1269 75.0843 29.2033 75.4741 27.0447C75.6754 25.5899 74.849 24.8027 75.9772 23.4077C76.2475 23.1029 76.4941 22.8861 76.8052 22.7808C80.6493 26.734 83.1485 31.8355 83.8518 37.3045C83.3412 37.4506 82.7662 37.4851 82.1032 37.496C79.9382 37.4817 76.9959 35.0903 74.8654 35.651ZM34.7482 34.0482C36.1862 28.6815 39.2894 24.1382 43.277 20.8691C43.365 20.8927 46.515 21.4538 48.0687 22.3416C48.7898 22.8177 48.5949 23.8971 47.8612 24.1719C45.8188 24.7562 45.5106 27.3139 46.8113 28.7939C48.1356 30.186 50.1245 30.1532 51.8323 29.7621C52.3429 29.6161 56.3365 31.2519 53.3276 35.4433C50.6768 39.3535 41.8853 36.6206 42.9389 43.5978C43.0786 44.4839 42.4266 45.1579 41.5232 45.0101C39.8045 44.7382 39.5136 47.5834 39.6298 48.5574C39.7051 49.332 39.9565 50.1537 40.1198 50.9518C40.324 51.9495 40.5925 53.0586 40.3332 54.0264C40.0739 54.9942 39.7329 55.5629 39.0871 55.8613C34.4828 49.8186 32.6501 41.8782 34.7482 34.0482Z" fill="#4747EC"/>
<path fill-rule="evenodd" clip-rule="evenodd" d="M56.3909 25.4202C57.0303 25.4973 57.6225 25.7502 57.9445 26.308C58.2257 26.6662 58.3718 27.1768 58.4299 27.6639C58.5116 28.0629 58.3937 28.5028 58.1878 28.9192C58.0055 29.2475 57.7353 29.5523 57.4242 29.6575C56.6434 30.1083 55.6693 30.2245 54.8131 29.9008C53.9333 29.6651 53.1478 29.0774 52.5854 28.361C52.3686 28.1143 52.2634 27.8032 52.3341 27.5392C52.3813 27.3633 52.5165 27.2109 52.6516 27.0585C53.6619 26.1034 55.0241 25.2426 56.3909 25.4202Z" fill="#4747EC"/>
<path d="M66.1066 59.895C62.5012 57.5146 61.6438 53.3244 59.2246 50.036C57.2798 47.4404 54.3719 45.624 51.2047 44.7753C48.0375 43.9267 44.7161 44.3568 41.4546 43.8601C38.6566 43.3932 35.9891 41.7355 33.8321 39.9318C33.5311 51.2608 41.0227 61.6604 52.4598 64.7249C60.026 66.7523 67.6316 65.1127 73.5801 60.8603C71.0851 62.0777 68.3578 61.3469 66.1066 59.895Z" fill="#0161CD"/>
<mask id="mask1_1_1453" style="mask-type:luminance" maskUnits="userSpaceOnUse" x="0" y="0" width="113" height="87">
<path fill-rule="evenodd" clip-rule="evenodd" d="M16.9229 0.983398L112.555 26.608L96.5485 86.3452L0.916317 60.7206L16.9229 0.983398Z" fill="white"/>
</mask>
<g mask="url(#mask1_1_1453)">
<path fill-rule="evenodd" clip-rule="evenodd" d="M3.3737 56.4757C4.31326 55.7845 5.34076 55.1169 6.45628 54.4729C7.18367 54.5735 7.79957 54.7385 8.52697 54.8391C7.67538 55.5539 7.15216 56.4509 7.26834 57.425C7.6295 59.5962 11.3498 59.0844 12.9398 59.1332C28.5107 59.4393 43.3828 55.315 58.1969 50.7036C70.9449 46.7644 83.3944 42.1795 95.6571 36.8845C97.0366 36.3111 98.4161 35.7378 99.7075 35.1409C101.756 34.1812 111.73 29.6872 106.148 26.5885C104.659 25.8123 102.91 26.0038 101.314 26.3305C98.1686 26.8078 94.9117 27.3496 91.7664 27.8269C92.4357 27.4405 93.017 27.0305 93.6863 26.644C94.6604 26.5279 95.6345 26.4117 96.5206 26.2719C99.5543 25.859 113.481 22.8013 111.676 30.2386C111.057 32.9015 108.238 34.9751 106.136 36.4863C101.415 40.0302 95.9379 42.5231 90.7249 45.0866C69.0982 55.4162 44.6233 63.0024 20.4507 63.126C17.4232 63.1634 14.2434 63.0657 11.2395 63.0152C8.23557 62.9647 -3.13252 61.0501 3.3737 56.4757Z" fill="#0052AB"/>
</g>
<path fill-rule="evenodd" clip-rule="evenodd" d="M10.5521 59.2477C14.5692 60.7956 18.9243 59.3223 23.1018 59.2158C27.1033 59.0622 31.0985 59.284 35.0592 58.9309C43.6672 58.1256 52.2959 54.78 60.5773 52.3785C68.8586 49.9771 77.0112 47.3525 84.936 43.8183C92.4146 40.5417 100.861 37.5243 106.747 31.7464C106.882 31.594 107.122 31.7528 106.987 31.9052C104.971 34.8539 101.695 36.5221 98.6189 38.1495C94.6093 40.0925 90.5118 42.012 86.4379 43.8436C78.0904 47.5474 69.6033 50.3652 60.8113 52.9127C52.442 55.2906 43.7898 58.7243 35.1582 59.6175C30.7984 60.0523 26.4041 59.912 22.0035 60.1473C18.2659 60.3717 13.9108 61.845 10.3871 59.8636C10.0823 59.5933 10.2238 59.0654 10.5521 59.2477Z" fill="#003864"/>
</svg>
