<svg width="311" height="632" viewBox="0 0 311 632" fill="none" xmlns="http://www.w3.org/2000/svg">
<path fill-rule="evenodd" clip-rule="evenodd" d="M3.17707 510.015C3.0387 510.015 3.03869 510.015 2.27766 509.946C2.41603 509.116 1.44744 507.178 1.44744 509.946C0.686406 509.877 -1.38914 510.776 1.44744 510.776C1.37826 511.537 2.27766 513.613 2.27766 510.776C2.41603 510.845 4.83751 510.361 3.17707 510.015ZM70.2865 415.232C70.1482 415.232 70.1482 415.232 69.3871 415.162C69.5255 414.332 68.5569 412.395 68.5569 415.162C67.7959 415.093 65.7203 415.993 68.5569 415.993C68.4877 416.754 69.3871 418.829 69.3871 415.993C69.5255 416.062 71.947 415.578 70.2865 415.232ZM38.4614 206.985C38.3231 206.985 38.3231 206.985 37.562 206.915C37.7004 206.085 36.7318 204.148 36.7318 206.915C35.9708 206.846 33.8952 207.746 36.7318 207.746C36.6626 208.507 37.562 210.582 37.562 207.746C37.7004 207.815 40.1219 207.331 38.4614 206.985ZM281.993 1.50518C281.854 1.50518 281.854 1.50518 281.093 1.436C281.232 0.605775 280.263 -1.33141 280.263 1.436C279.502 1.36681 277.426 2.26622 280.263 2.26622C280.194 3.02725 281.093 5.17199 281.093 2.26622C281.232 2.3354 283.653 1.85111 281.993 1.50518ZM72.3621 116.352C72.2237 116.352 72.2237 116.352 71.4627 116.283C71.6011 115.453 70.6325 113.516 70.6325 116.283C69.8714 116.214 67.7959 117.113 70.6325 117.113C70.5633 117.874 71.4627 119.95 71.4627 117.113C71.6011 117.183 74.0225 116.698 72.3621 116.352ZM4.76832 574.15C3.4538 574.634 4.21484 577.678 6.08284 576.294C7.1898 575.741 6.15202 573.942 4.76832 574.15ZM309.182 629.498C307.868 629.982 308.629 633.026 310.566 631.642C311.604 631.089 310.566 629.29 309.182 629.498Z" fill="#71CEFC"/>
</svg>
