<svg width="237" height="48" viewBox="0 0 237 48" fill="none" xmlns="http://www.w3.org/2000/svg">
<rect x="0.583496" y="2" width="24.5555" height="22.6666" rx="1.88889" fill="#387DFF"/>
<rect x="30.8058" y="1.99988" width="20.7777" height="18.8889" rx="1.88889" fill="#7894FF"/>
<rect x="30.8058" y="28.4443" width="20.7777" height="18.8889" rx="1.88889" fill="#180F4F"/>
<rect x="2.47211" y="28.4443" width="20.7777" height="18.8889" rx="1.88889" fill="#070C87"/>
<path d="M95.904 30.744H87.008L85.536 35H80.832L88.864 12.632H94.08L102.112 35H97.376L95.904 30.744ZM94.688 27.16L91.456 17.816L88.224 27.16H94.688ZM113.242 20.952H110.138V35H105.594V20.952H103.578V17.272H105.594V16.376C105.594 14.2 106.213 12.6 107.45 11.576C108.688 10.552 110.554 10.072 113.05 10.136V13.912C111.962 13.8907 111.205 14.072 110.778 14.456C110.352 14.84 110.138 15.5333 110.138 16.536V17.272H113.242V20.952ZM120.626 20.024C121.202 19.0853 121.948 18.3493 122.866 17.816C123.804 17.2827 124.871 17.016 126.066 17.016V21.72H124.882C123.474 21.72 122.407 22.0507 121.682 22.712C120.978 23.3733 120.626 24.5253 120.626 26.168V35H116.146V17.272H120.626V20.024ZM136.955 35.288C135.248 35.288 133.712 34.9147 132.347 34.168C130.982 33.4 129.904 32.3227 129.115 30.936C128.347 29.5493 127.963 27.9493 127.963 26.136C127.963 24.3227 128.358 22.7227 129.147 21.336C129.958 19.9493 131.056 18.8827 132.443 18.136C133.83 17.368 135.376 16.984 137.083 16.984C138.79 16.984 140.336 17.368 141.723 18.136C143.11 18.8827 144.198 19.9493 144.987 21.336C145.798 22.7227 146.203 24.3227 146.203 26.136C146.203 27.9493 145.787 29.5493 144.955 30.936C144.144 32.3227 143.035 33.4 141.627 34.168C140.24 34.9147 138.683 35.288 136.955 35.288ZM136.955 31.384C137.766 31.384 138.523 31.192 139.227 30.808C139.952 30.4027 140.528 29.8053 140.955 29.016C141.382 28.2267 141.595 27.2667 141.595 26.136C141.595 24.4507 141.147 23.16 140.251 22.264C139.376 21.3467 138.299 20.888 137.019 20.888C135.739 20.888 134.662 21.3467 133.787 22.264C132.934 23.16 132.507 24.4507 132.507 26.136C132.507 27.8213 132.923 29.1227 133.755 30.04C134.608 30.936 135.675 31.384 136.955 31.384ZM170.81 30.744H161.914L160.442 35H155.738L163.77 12.632H168.986L177.018 35H172.282L170.81 30.744ZM169.594 27.16L166.362 17.816L163.13 27.16H169.594ZM184.501 19.832C185.077 19.0213 185.866 18.3493 186.869 17.816C187.893 17.2613 189.055 16.984 190.357 16.984C191.871 16.984 193.237 17.3573 194.453 18.104C195.69 18.8507 196.661 19.9173 197.365 21.304C198.09 22.6693 198.453 24.2587 198.453 26.072C198.453 27.8853 198.09 29.496 197.365 30.904C196.661 32.2907 195.69 33.368 194.453 34.136C193.237 34.904 191.871 35.288 190.357 35.288C189.055 35.288 187.903 35.0213 186.901 34.488C185.919 33.9547 185.119 33.2827 184.501 32.472V43.448H180.021V17.272H184.501V19.832ZM193.877 26.072C193.877 25.0053 193.653 24.088 193.205 23.32C192.778 22.5307 192.202 21.9333 191.477 21.528C190.773 21.1227 190.005 20.92 189.173 20.92C188.362 20.92 187.594 21.1333 186.869 21.56C186.165 21.9653 185.589 22.5627 185.141 23.352C184.714 24.1413 184.501 25.0693 184.501 26.136C184.501 27.2027 184.714 28.1307 185.141 28.92C185.589 29.7093 186.165 30.3173 186.869 30.744C187.594 31.1493 188.362 31.352 189.173 31.352C190.005 31.352 190.773 31.1387 191.477 30.712C192.202 30.2853 192.778 29.6773 193.205 28.888C193.653 28.0987 193.877 27.16 193.877 26.072ZM218.188 25.752C218.188 26.392 218.145 26.968 218.06 27.48H205.1C205.207 28.76 205.655 29.7627 206.444 30.488C207.233 31.2133 208.204 31.576 209.356 31.576C211.02 31.576 212.204 30.8613 212.908 29.432H217.74C217.228 31.1387 216.247 32.5467 214.796 33.656C213.345 34.744 211.564 35.288 209.452 35.288C207.745 35.288 206.209 34.9147 204.844 34.168C203.5 33.4 202.444 32.3227 201.676 30.936C200.929 29.5493 200.556 27.9493 200.556 26.136C200.556 24.3013 200.929 22.6907 201.676 21.304C202.423 19.9173 203.468 18.8507 204.812 18.104C206.156 17.3573 207.703 16.984 209.452 16.984C211.137 16.984 212.641 17.3467 213.964 18.072C215.308 18.7973 216.343 19.832 217.068 21.176C217.815 22.4987 218.188 24.024 218.188 25.752ZM213.548 24.472C213.527 23.32 213.111 22.4027 212.3 21.72C211.489 21.016 210.497 20.664 209.324 20.664C208.215 20.664 207.276 21.0053 206.508 21.688C205.761 22.3493 205.303 23.2773 205.132 24.472H213.548ZM228.242 35.288C226.791 35.288 225.49 35.032 224.338 34.52C223.186 33.9867 222.269 33.272 221.586 32.376C220.925 31.48 220.562 30.488 220.498 29.4H225.01C225.095 30.0827 225.426 30.648 226.002 31.096C226.599 31.544 227.335 31.768 228.21 31.768C229.063 31.768 229.725 31.5973 230.194 31.256C230.685 30.9147 230.93 30.4773 230.93 29.944C230.93 29.368 230.631 28.9413 230.034 28.664C229.458 28.3653 228.53 28.0453 227.25 27.704C225.927 27.384 224.839 27.0533 223.986 26.712C223.154 26.3707 222.429 25.848 221.81 25.144C221.213 24.44 220.914 23.4907 220.914 22.296C220.914 21.3147 221.191 20.4187 221.746 19.608C222.322 18.7973 223.133 18.1573 224.178 17.688C225.245 17.2187 226.493 16.984 227.922 16.984C230.034 16.984 231.719 17.5173 232.978 18.584C234.237 19.6293 234.93 21.048 235.058 22.84H230.77C230.706 22.136 230.407 21.5813 229.874 21.176C229.362 20.7493 228.669 20.536 227.794 20.536C226.983 20.536 226.354 20.6853 225.906 20.984C225.479 21.2827 225.266 21.6987 225.266 22.232C225.266 22.8293 225.565 23.288 226.162 23.608C226.759 23.9067 227.687 24.216 228.946 24.536C230.226 24.856 231.282 25.1867 232.114 25.528C232.946 25.8693 233.661 26.4027 234.258 27.128C234.877 27.832 235.197 28.7707 235.218 29.944C235.218 30.968 234.93 31.8853 234.354 32.696C233.799 33.5067 232.989 34.1467 231.922 34.616C230.877 35.064 229.65 35.288 228.242 35.288Z" fill="white"/>
</svg>
