<?xml version="1.0" encoding="utf-8"?>
<!-- Generator: Adobe Illustrator 27.6.1, SVG Export Plug-In . SVG Version: 6.00 Build 0)  -->
<svg version="1.1" id="Layer_1" xmlns="http://www.w3.org/2000/svg" xmlns:xlink="http://www.w3.org/1999/xlink" x="0px" y="0px"
	 viewBox="0 0 189.2 46" style="enable-background:new 0 0 189.2 46;" xml:space="preserve">
<style type="text/css">
	.st0{fill:#387DFF;}
	.st1{fill:#7894FF;}
	.st2{fill:#180F4F;}
	.st3{fill:#070C87;}
	.st4{fill:#FFFFFF;}
</style>
<path class="st0" d="M2.5,0h20.8c1,0,1.9,0.8,1.9,1.9v18.9c0,1-0.8,1.9-1.9,1.9H2.5c-1,0-1.9-0.8-1.9-1.9V1.9C0.6,0.8,1.4,0,2.5,0z"
	/>
<path class="st1" d="M32.7,0h17c1,0,1.9,0.8,1.9,1.9V17c0,1-0.8,1.9-1.9,1.9h-17c-1,0-1.9-0.8-1.9-1.9V1.9C30.8,0.8,31.7,0,32.7,0z"
	/>
<path class="st2" d="M32.7,26.4h17c1,0,1.9,0.8,1.9,1.9v15.1c0,1-0.8,1.9-1.9,1.9h-17c-1,0-1.9-0.8-1.9-1.9V28.3
	C30.8,27.3,31.7,26.4,32.7,26.4z"/>
<path class="st3" d="M4.4,26.4h17c1,0,1.9,0.8,1.9,1.9v15.1c0,1-0.8,1.9-1.9,1.9h-17c-1,0-1.9-0.8-1.9-1.9V28.3
	C2.5,27.3,3.3,26.4,4.4,26.4z"/>
<path class="st4" d="M83.6,25.9h-6.3l-1,3H72L78.1,12h4.8L89,28.8h-4.3L83.6,25.9z M82.5,22.7l-2.1-6.2l-2.1,6.2H82.5z M97.5,18.9
	h-2.2v10h-4.1v-10h-1.5v-3.4h1.5v-0.4c0-1.6,0.5-2.9,1.4-3.7c0.9-0.9,2.3-1.3,4.2-1.3c0.3,0,0.5,0,0.7,0v3.5c-0.8,0-1.3,0.1-1.7,0.3
	c-0.3,0.3-0.5,0.8-0.5,1.5v0.1h2.2V18.9z M103.5,17.7c0.5-0.7,1.1-1.3,1.8-1.7c0.7-0.4,1.5-0.6,2.4-0.6v4.3h-1.1
	c-1,0-1.8,0.2-2.3,0.7c-0.5,0.4-0.8,1.2-0.8,2.3v6.2h-4.1V15.5h4.1V17.7z M115.8,29.1c-1.3,0-2.5-0.3-3.6-0.8
	c-1-0.6-1.9-1.4-2.5-2.4s-0.9-2.3-0.9-3.6c0-1.4,0.3-2.6,0.9-3.6c0.6-1.1,1.4-1.9,2.5-2.4c1.1-0.6,2.2-0.8,3.6-0.8
	c1.3,0,2.5,0.3,3.6,0.8c1.1,0.6,1.9,1.4,2.5,2.4s0.9,2.2,0.9,3.6s-0.3,2.6-0.9,3.6s-1.4,1.8-2.5,2.4
	C118.3,28.8,117.1,29.1,115.8,29.1z M115.8,25.5c0.8,0,1.4-0.3,2-0.9s0.8-1.4,0.8-2.5s-0.3-1.9-0.8-2.5s-1.2-0.9-2-0.9
	s-1.5,0.3-2,0.9S113,21,113,22.1s0.3,1.9,0.8,2.5C114.4,25.2,115,25.5,115.8,25.5z M140.6,25.9h-6.3l-1,3H129l6.1-16.8h4.8l6.1,16.8
	h-4.3L140.6,25.9z M139.5,22.7l-2.1-6.2l-2.1,6.2H139.5z M151.9,17.4c0.4-0.6,1-1.1,1.7-1.5s1.5-0.6,2.5-0.6c1.1,0,2.1,0.3,3,0.8
	c0.9,0.6,1.6,1.4,2.1,2.4s0.8,2.2,0.8,3.6s-0.3,2.6-0.8,3.6s-1.2,1.8-2.1,2.4c-0.9,0.6-1.9,0.8-3,0.8c-0.9,0-1.8-0.2-2.5-0.6
	s-1.3-0.9-1.7-1.5v8.3h-4.1V15.5h4.1V17.4z M157.7,22.2c0-1-0.3-1.8-0.9-2.4c-0.6-0.6-1.3-0.9-2.1-0.9s-1.5,0.3-2.1,0.9
	s-0.8,1.4-0.8,2.4s0.3,1.8,0.8,2.4c0.6,0.6,1.3,0.9,2.1,0.9s1.5-0.3,2.1-0.9C157.4,24,157.7,23.2,157.7,22.2z M176.7,22
	c0,0.4,0,0.8-0.1,1.2h-9.3c0.1,0.8,0.3,1.5,0.8,1.9s1.1,0.6,1.8,0.6c1,0,1.7-0.4,2.1-1.3h4.4c-0.2,0.9-0.6,1.7-1.2,2.4
	c-0.6,0.7-1.3,1.3-2.2,1.7c-0.9,0.4-1.9,0.6-3,0.6c-1.3,0-2.5-0.3-3.5-0.8c-1-0.6-1.8-1.4-2.4-2.4c-0.6-1-0.9-2.3-0.9-3.6
	s0.3-2.6,0.8-3.6c0.6-1,1.4-1.8,2.4-2.4s2.2-0.8,3.5-0.8s2.4,0.3,3.5,0.8c1,0.5,1.8,1.3,2.4,2.3C176.4,19.5,176.7,20.6,176.7,22z
	 M172.5,20.9c0-0.7-0.2-1.3-0.7-1.7c-0.5-0.4-1.1-0.6-1.8-0.6s-1.3,0.2-1.8,0.6s-0.8,1-0.9,1.7H172.5z M184.3,29.1
	c-1.2,0-2.2-0.2-3.1-0.6c-0.9-0.4-1.6-0.9-2.2-1.6c-0.5-0.7-0.8-1.5-0.9-2.4h4.1c0,0.5,0.3,0.8,0.6,1.1s0.9,0.4,1.4,0.4
	s0.9-0.1,1.2-0.3c0.3-0.2,0.4-0.5,0.4-0.8c0-0.4-0.2-0.7-0.6-0.8c-0.4-0.2-1-0.4-1.9-0.6c-1-0.2-1.8-0.5-2.4-0.7
	c-0.6-0.3-1.2-0.6-1.7-1.2c-0.5-0.5-0.7-1.3-0.7-2.2c0-0.8,0.2-1.5,0.6-2.1c0.4-0.6,1.1-1.1,1.9-1.5c0.8-0.4,1.8-0.6,3-0.6
	c1.7,0,3,0.4,4,1.2c1,0.8,1.5,1.9,1.7,3.3h-3.8c-0.1-0.5-0.3-0.8-0.6-1.1c-0.3-0.3-0.8-0.4-1.3-0.4s-0.8,0.1-1.1,0.3
	c-0.3,0.2-0.4,0.4-0.4,0.7c0,0.4,0.2,0.7,0.6,0.9c0.4,0.2,1.1,0.4,1.9,0.6c1,0.3,1.8,0.5,2.4,0.8c0.6,0.2,1.2,0.6,1.6,1.2
	c0.5,0.5,0.7,1.3,0.7,2.2c0,0.8-0.2,1.5-0.7,2.1c-0.4,0.6-1.1,1.1-1.9,1.4C186.3,28.9,185.4,29.1,184.3,29.1z"/>
</svg>
